<?xml version="1.0" encoding="UTF-8" standalone="no"?>
<!-- Created with Inkscape (http://www.inkscape.org/) -->

<svg
   width="512"
   height="512"
   viewBox="0 0 512 512"
   version="1.1"
   id="svg1"
   inkscape:version="1.4.2 (f4327f4, 2025-05-13)"
   sodipodi:docname="icon.svg"
   xmlns:inkscape="http://www.inkscape.org/namespaces/inkscape"
   xmlns:sodipodi="http://sodipodi.sourceforge.net/DTD/sodipodi-0.dtd"
   xmlns="http://www.w3.org/2000/svg"
   xmlns:svg="http://www.w3.org/2000/svg">
  <sodipodi:namedview
     id="namedview1"
     pagecolor="#505050"
     bordercolor="#ffffff"
     borderopacity="1"
     inkscape:showpageshadow="0"
     inkscape:pageopacity="0"
     inkscape:pagecheckerboard="1"
     inkscape:deskcolor="#505050"
     inkscape:document-units="px"
     inkscape:zoom="2.3358165"
     inkscape:cx="246.80877"
     inkscape:cy="260.50848"
     inkscape:window-width="2560"
     inkscape:window-height="1566"
     inkscape:window-x="-11"
     inkscape:window-y="-11"
     inkscape:window-maximized="1"
     inkscape:current-layer="layer1" />
  <defs
     id="defs1" />
  <g
     inkscape:label="Layer.1"
     inkscape:groupmode="layer"
     id="layer1"
     transform="translate(-1.144089,-1.900305)">
    <path
       id="path1"
       style="baseline-shift:baseline;display:inline;overflow:visible;vector-effect:none;stroke-linecap:round;stroke-linejoin:round;paint-order:markers fill stroke;enable-background:accumulate;stop-color:#000000;stop-opacity:1;opacity:1"
       d="M 249.75542 4.5643675 C 108.30845 4.5643675 2.7007296 132.5569 2.7007296 266.3007 C 2.7007296 321.5161 19.611174 356.21297 33.53862 380.12296 C 47.318464 408.50325 66.604915 432.56457 89.300339 451.82999 C 135.68567 491.20501 195.79713 511.23624 253.53862 511.23624 C 336.12369 511.23624 420.04985 480.26348 468.54643 399.97648 A 16.0016 16.0016 0 0 0 469.6519 397.77531 C 496.0981 360.55896 511.5855 314.50551 511.5855 264.45109 C 511.5855 220.42275 496.91557 157.09496 456.75737 102.88859 C 419.83662 53.052198 360.14219 12.081181 273.7769 5.79093 C 273.77626 5.7908833 273.77559 5.7909767 273.77495 5.79093 C 270.26549 5.5353475 266.71063 5.3364993 263.11284 5.19718 C 262.41671 5.1584763 261.69671 5.1709735 260.9976 5.1385862 C 257.24433 4.9583329 253.58665 4.5643675 249.75542 4.5643675 z M 247.79057 36.574133 A 16.0016 16.0016 0 0 0 250.51714 36.847571 C 308.96353 36.847571 354.1385 62.003472 385.49565 96.158118 C 416.85281 130.31276 433.4019 173.86981 433.4019 206.58781 C 433.4019 273.32916 407.85061 312.02221 377.47612 335.96085 C 367.95983 343.4608 357.79152 349.40461 347.77104 354.03116 C 349.63168 352.04212 351.44064 349.99615 353.14214 347.83781 C 368.66143 328.15166 378.33525 303.0028 382.40385 273.90226 A 16.0016 16.0016 0 0 0 382.50932 273.45499 C 402.84937 180.61729 327.17883 74.156164 210.6851 74.156164 C 160.40605 74.156164 117.18447 93.651706 84.204636 122.60148 C 122.7526 72.014234 180.82085 37.242414 247.79057 36.574133 z M 211.2105 106.46671 C 242.08626 106.46671 269.78561 116.21245 292.31401 131.8632 C 286.24401 130.7282 280.08423 130.04288 273.85893 130.04288 C 245.90817 130.04288 219.04812 136.87323 195.05034 148.93156 A 16.0016 16.0016 0 0 0 193.07573 149.60929 C 145.31609 169.68572 103.20866 219.49225 96.933151 288.99991 C 96.732468 291.14447 96.575021 293.29846 96.458542 295.46281 C 96.240828 299.26887 96.128464 303.13187 96.128464 307.04874 C 96.128464 384.45563 149.13595 450.12235 221.58354 476.6796 C 181.46139 470.82342 141.59619 454.24854 110.00932 427.43546 C 91.068676 411.35735 74.989333 391.82146 63.308152 368.65421 A 16.0016 16.0016 0 0 0 62.806198 367.16007 C 57.473503 353.58738 52.886956 343.36841 49.446823 330.95499 C 49.200232 329.99401 48.850023 329.1091 48.616745 328.13859 C 48.306714 326.91721 48.055339 325.54982 47.769089 324.27335 C 46.644012 319.14355 45.817393 313.80738 45.071823 308.41593 C 43.930241 298.88702 43.253464 287.72809 43.253464 273.49015 C 43.253464 243.82671 58.278138 200.48344 87.067917 166.25187 C 115.8577 132.02031 157.11555 106.46671 211.2105 106.46671 z M 273.85893 162.04288 C 314.97622 162.04288 355.88273 194.83596 351.89995 258.5839 C 349.43815 288.24215 340.86965 311.71648 328.01128 328.02726 C 312.63469 347.53238 291.42211 358.10734 261.40971 358.10734 C 247.0593 358.10734 228.81015 350.62653 218.23198 345.94718 C 209.69229 340.69892 201.74825 334.72468 194.56206 328.26163 C 169.05793 305.324 154.35307 276.10143 154.35307 256.9921 C 154.35307 228.63753 166.06087 210.14027 180.37651 197.05265 C 206.13617 175.40027 239.11261 162.04288 273.85893 162.04288 z M 464.11089 184.5546 C 474.89998 214.26903 479.5855 243.09384 479.5855 264.45109 C 479.5855 309.09561 465.78767 349.62305 442.22807 381.87296 C 441.74423 382.53528 441.16347 383.11024 440.67143 383.76554 C 411.68167 422.12055 354.66983 457.0507 294.97026 457.0507 C 198.38376 457.0507 128.22026 385.3299 128.22026 304.28702 C 128.22026 303.15745 128.2354 302.03099 128.26518 300.90616 C 128.35495 297.51607 128.77327 294.18798 129.12651 290.84757 C 137.44956 312.73473 152.97548 333.898 173.16362 352.0546 C 180.66666 358.8026 188.86341 365.13048 197.65385 370.83585 A 16.0016 16.0016 0 0 0 200.4976 372.96671 C 205.008 375.60883 211.22698 378.98821 218.34135 382.47062 C 219.07833 382.82778 219.85419 383.11088 220.59721 383.4589 C 235.36445 390.47128 254.79078 397.50769 279.3394 399.44913 C 279.3413 399.44928 279.34336 399.44898 279.34526 399.44913 C 279.36136 399.45045 279.37798 399.44978 279.39409 399.45109 C 283.59924 399.78227 287.83727 400.08195 292.31401 400.08195 C 373.05284 400.08195 466.38432 331.97125 466.38432 213.70304 C 466.38432 203.99013 465.61497 194.24294 464.11089 184.5546 z " />
  </g>
</svg>
