<?xml version="1.0" encoding="UTF-8" standalone="no"?>
<!-- Created with Inkscape (http://www.inkscape.org/) -->

<svg
   width="512"
   height="512"
   viewBox="0 0 512 512"
   version="1.1"
   id="svg1"
   inkscape:version="1.4 (86a8ad7, 2024-10-11)"
   sodipodi:docname="icon.svg"
   xmlns:inkscape="http://www.inkscape.org/namespaces/inkscape"
   xmlns:sodipodi="http://sodipodi.sourceforge.net/DTD/sodipodi-0.dtd"
   xmlns="http://www.w3.org/2000/svg"
   xmlns:svg="http://www.w3.org/2000/svg">
  <sodipodi:namedview
     id="namedview1"
     pagecolor="#505050"
     bordercolor="#ffffff"
     borderopacity="1"
     inkscape:showpageshadow="0"
     inkscape:pageopacity="0"
     inkscape:pagecheckerboard="1"
     inkscape:deskcolor="#505050"
     inkscape:document-units="px"
     inkscape:zoom="2.3358165"
     inkscape:cx="199.93009"
     inkscape:cy="196.07705"
     inkscape:window-width="1661"
     inkscape:window-height="1071"
     inkscape:window-x="673"
     inkscape:window-y="292"
     inkscape:window-maximized="0"
     inkscape:current-layer="layer1" />
  <defs
     id="defs1" />
  <g
     inkscape:label="Layer.1"
     inkscape:groupmode="layer"
     id="layer1">
    <path
       style="opacity:1;fill:none;fill-opacity:1;stroke:#ffffff;stroke-width:4;stroke-linecap:round;stroke-linejoin:round;stroke-dasharray:none;stroke-opacity:1;paint-order:markers fill stroke"
       d="m 112.98552,307.14848 c 0,91.50976 82.63336,166.23967 180.61302,166.23967 113.81993,0 202.8441,-92.10004 202.8441,-208.83773 0,-80.63013 -56.13792,-243.602635 -245.06883,-243.602635 126.19558,0 198.88419,110.059965 198.88419,185.740865 0,141.97738 -113.06727,177.39603 -156.96219,177.39603 -84.09077,0 -154.08631,-74.53977 -154.08631,-126.99255 0,-52.98793 36.92518,-78.77819 60.92312,-92.63342 -45.73173,19.22397 -87.1471,69.83225 -87.1471,142.68977 z"
       id="path1"
       sodipodi:nodetypes="ssscssscs" />
    <path
       style="opacity:1;fill:none;fill-opacity:1;stroke:#ffffff;stroke-width:4;stroke-linecap:round;stroke-linejoin:round;stroke-dasharray:none;stroke-opacity:1;paint-order:markers fill stroke"
       d="m 293.1699,384.18174 c 71.7455,0 158.07195,-60.49041 158.07195,-170.37909 C 451.24185,120.1097 372.6094,20.665 250.61178,20.665 118.92116,20.665 19.558,141.11685 19.558,266.40088 c 0,52.82543 15.59047,83.46879 29.212828,106.71007 -10.909772,-27.76738 -20.660886,-45.72002 -20.660886,-99.52038 0,-69.39932 65.533084,-183.023962 183.957338,-183.023962 90.70168,0 157.42028,75.036262 157.42028,149.989252 0,81.73537 -39.07026,133.65246 -107.22092,133.65246 -21.30417,0 -43.74355,-10.8602 -52.82527,-14.94697 15.43891,9.04386 42.97436,24.92039 83.72853,24.92039 z"
       id="path2"
       sodipodi:nodetypes="sssscsssscs" />
    <path
       style="opacity:1;fill:none;fill-opacity:1;stroke:#ffffff;stroke-width:4;stroke-linecap:round;stroke-linejoin:round;stroke-dasharray:none;stroke-opacity:1;paint-order:markers fill stroke"
       d="m 274.71615,146.14393 c -86.15984,0 -161.63873,72.51265 -161.63873,158.24221 0,90.27758 78.15811,168.76493 182.74911,168.76493 66.5992,0 128.09452,-38.05746 159.88049,-81.34693 -45.25717,74.92409 -122.60305,103.53147 -201.31119,103.53147 -108.00104,0 -226.767518,-75.75552 -226.767518,-217.55727 0,-83.56585 72.137372,-187.522851 183.914308,-187.522851 106.71789,0 174.1754,97.805391 156.19454,179.875061 9.77636,-77.49441 -40.48105,-123.98662 -93.02101,-123.98662 z"
       id="path3"
       sodipodi:nodetypes="ssscssscs" />
  </g>
</svg>
